<svg xmlns="http://www.w3.org/2000/svg" viewBox="0 0 1024 1024" aria-hidden="true"><path d="M960 512c0 97.76-28.704 185.216-85.664 263.264-56.96 78.016-130.496 131.84-220.64 161.856-10.304 1.824-18.368 0.448-22.848-4.032a22.4 22.4 0 0 1-7.2-17.504v-122.88c0-37.632-10.304-65.44-30.464-82.912a409.856 409.856 0 0 0 59.616-10.368 222.752 222.752 0 0 0 54.72-22.816c18.848-10.784 34.528-23.36 47.104-38.592 12.544-15.232 22.848-35.904 30.912-61.44 8.096-25.568 12.128-54.688 12.128-87.904 0-47.072-15.232-86.976-46.208-120.16 14.368-35.456 13.024-74.912-4.48-118.848-10.752-3.616-26.432-1.344-47.072 6.272s-38.56 16.16-53.824 25.568l-21.984 13.888c-36.32-10.304-73.536-15.232-112.096-15.232s-75.776 4.928-112.096 15.232a444.48 444.48 0 0 0-24.672-15.68c-10.336-6.272-26.464-13.888-48.896-22.432-21.952-8.96-39.008-11.232-50.24-8.064-17.024 43.936-18.368 83.424-4.032 118.848-30.496 33.632-46.176 73.536-46.176 120.608 0 33.216 4.032 62.336 12.128 87.456 8.032 25.12 18.368 45.76 30.496 61.44 12.544 15.68 28.224 28.704 47.072 39.04 18.848 10.304 37.216 17.92 54.72 22.816a409.6 409.6 0 0 0 59.648 10.368c-15.712 13.856-25.12 34.048-28.704 60.064a99.744 99.744 0 0 1-26.464 8.512 178.208 178.208 0 0 1-33.184 2.688c-13.024 0-25.568-4.032-38.144-12.544-12.544-8.512-23.296-20.64-32.256-36.32a97.472 97.472 0 0 0-28.256-30.496c-11.232-8.064-21.088-12.576-28.704-13.92l-11.648-1.792c-8.096 0-13.92 0.928-17.056 2.688-3.136 1.792-4.032 4.032-2.688 6.72s3.136 5.408 5.376 8.096 4.928 4.928 7.616 7.168l4.032 2.688c8.544 4.032 17.056 11.232 25.568 21.984 8.544 10.752 14.368 20.64 18.4 29.6l5.824 13.44c4.928 14.816 13.44 26.912 25.568 35.872 12.096 8.992 25.088 14.816 39.008 17.504 13.888 2.688 27.36 4.032 40.352 4.032s23.776-0.448 32.288-2.24l13.472-2.24c0 14.784 0 32.288 0.416 52.032 0 19.744 0.48 30.496 0.48 31.392a22.624 22.624 0 0 1-7.648 17.472c-4.928 4.48-12.992 5.824-23.296 4.032-90.144-30.048-163.68-83.84-220.64-161.888C92.256 697.216 64 609.312 64 512c0-81.152 20.192-156.064 60.096-224.672s94.176-122.88 163.232-163.264C372.8 28.736 447.872 8 512 8c65.216 0 125.856 9.504 182.272 28.672 55.872 18.688 100.448 45.792 133.376 81.152 32.384 34.88 56.896 76.544 73.216 124.672 16.384 47.04 24.512 98.688 24.512 154.432 0 25.568-1.504 50.624-4.48 75.2-3.008 24.512-7.52 48.512-13.504 72.064 5.504-1.504 10.976-2.24 16.48-2.24 14.016 0 27.52 3.008 40.512 9.056 12.992 6.016 23.52 14.528 31.52 25.504 7.488 10.496 11.488 21.504 11.488 32.96 0 8.48-2.016 16-6.016 22.496-4.032 6.496-9.536 11.52-16.544 15.04-7.008 3.52-14.528 5.28-22.528 5.28-16.992 0-31.52-4.512-43.52-13.504-12.032-9.024-20.032-21.504-24.032-37.504-4-16.032-4-33.536 0-52.512 4-18.976 12-34.976 24-48l4-4c-2.528-8-3.52-16.032-3.008-24.032 0.512-8.032 2.528-15.52 6.048-22.528 3.488-6.976 8-12.992 13.472-18.048 5.504-5.024 12-8.992 19.52-11.936 7.488-2.976 15.488-4.48 24-4.48 19.008 0 36.992 6.976 52.512 20.864 15.52 13.952 22.848 31.68 22.848 52.672 0 14.528-4.992 27.52-14.976 39.008-9.984 11.52-21.472 17.504-34.528 17.504-12.032 0-22.528-3.488-31.488-10.464-8.992-6.976-14.464-16.48-16.448-28.544l-8-4c-6.016 15.488-14.528 28.512-25.536 39.104-11.008 10.624-23.52 18.88-37.504 24.768-13.984 5.92-28.48 8.864-43.488 8.864-15.008 0-29.504-2.944-43.488-8.864-13.984-5.888-25.504-14.24-34.528-25.056-9.024-10.784-15.52-23.264-19.52-37.504-4-14.272-5.504-29.28-5.504-45.024 0-20.512 3.008-40 9.024-58.496 6.048-18.496 14.544-35.008 25.536-49.536l-4 4c8.992 12.512 11.488 26.976 7.488 43.392-4 16.384-12.992 30.848-26.976 43.392-14.016 12.512-30.528 18.752-49.536 18.752-19.008 0-35.488-6.272-49.472-18.816-13.984-12.512-22.976-28.896-26.976-49.152-4-20.288-3.008-41.28 2.976-62.976 6.016-21.696 15.52-41.216 28.512-58.56 12.992-17.344 29.504-31.104 49.536-41.28 20.032-10.176 42.528-15.264 67.488-15.264 27.52 0 52.512 6.528 74.976 19.584 22.528 13.024 40 31.52 52.512 55.488 12.512 23.936 18.752 52.992 18.752 87.04 0 10.496-1.504 20.512-4.512 30.976-3.008 10.432-7.52 20.448-13.504 30.464l6 6c6.016-9.504 10.528-20.032 13.536-31.52 3.008-11.488 4.512-23.488 4.512-35.52 0-32.512-7.008-58.496-21.024-77.952-14.048-19.488-33.536-29.216-58.496-29.216-22.528 0-42.528 7.488-60 22.528-17.504 15.008-28.512 34.496-33.024 58.496-4.512 24-4.512 50.528 0 80.064 4.544 29.504 13.536 54.528 27.072 75.072 13.504 20.512 30.528 36.512 51.072 48 20.512 11.488 44.512 17.216 72 17.216 20.512 0 39.488-3.488 56.992-10.528 17.472-7.008 32-16.512 43.488-28.512 11.52-12.032 20-25.536 25.536-40.544 5.504-15.04 8.256-31.552 8.256-49.568 0-20.032-3.488-38.528-10.528-55.488-7.008-16.992-16.992-31.52-29.984-43.584-12.992-12.064-28-21.088-45.024-27.072-17.024-6.016-35.52-8.992-55.488-8.992-26.496 0-50.496 5.504-72 16.48-21.504 10.976-38.528 26.976-51.072 47.968-12.576 20.992-18.88 45.504-18.88 73.472 0 19.488 3.008 37.504 9.024 54.048 6.048 16.512 14.56 30.528 25.568 42.048 11.008 11.488 23.52 20.512 37.504 27.072 13.984 6.528 28.992 9.824 44.992 9.824 15.488 0 29.504-3.264 42.016-9.824 12.48-6.528 22.48-15.52 30.016-26.976 7.488-11.488 12.48-24 15.008-37.504 2.496-13.536 3.744-27.52 3.744-42.048 0-14.56-1.248-28.544-3.744-42.016-2.496-13.504-7.008-26.016-13.504-37.504-6.528-11.52-14.528-20.512-24-27.072l-10.528-6.528c-7.008 9.504-12.512 20.512-16.512 33.024-4.032 12.512-6.048 25.504-6.048 39.008 0 11.008 1.504 21.504 4.512 31.52 3.008 10.048 7.52 18.56 13.536 25.568 6.048 7.008 13.056 12.512 21.056 16.512 8.032 4.032 16.544 6.048 25.568 6.048 13.504 0 25.504-4.992 36-14.976 10.528-10.016 15.776-22.496 15.776-37.504 0-9.504-2.496-18.016-7.488-25.536s-12.512-13.44-21.536-16.992c-9.024-3.488-18.56-5.264-28.544-5.264-17.504 0-33.504 4.512-48 13.504-14.528 8.992-24.512 21.504-30.016 37.504l-6 2c-1.504-14.528-2.24-29.056-2.24-43.584 0-14.528 0.736-29.024 2.24-43.52l-4-2c-4 8.512-8 17.504-12 26.976-4 9.504-8 19.008-12 28.512l-4 8c4-8 8-16.512 12-25.504 4-9.024 8-18.048 12-27.072l4-8c-4 6.528-6.016 13.504-6.016 20.96 0 12.032 5.504 22.528 16.544 31.52 11.008 8.992 23.008 13.504 36 13.504 12.992 0 24.992-4.512 36-13.504 10.976-9.024 16.512-20.512 16.512-34.528 0-7.008-1.504-13.504-4.512-19.52-3.008-6.048-7.008-11.072-12.032-15.104-5.056-4.064-10.56-6.08-16.544-6.08-8.992 0-17.504 2.528-25.504 7.552-8.032 5.056-14.048 11.584-18.112 19.584-4.096 7.968-6.144 16.48-6.144 25.504 0 6.016 1.504 11.552 4.512 16.544 3.008 5.024 6.528 8.544 10.56 10.56 4.064 2.048 8.096 3.008 12.128 3.008 4.064 0 7.616-0.992 10.656-2.976 3.072-1.984 5.12-4.48 6.144-7.488l2-8c-6.016 4.032-12.032 8.064-18.112 12.032-6.016 4.032-12.032 8.064-18.048 12.096z"/></svg>